<?xml version="1.0" standalone="no"?>
<!DOCTYPE svg PUBLIC "-//W3C//DTD SVG 20010904//EN"
 "http://www.w3.org/TR/2001/REC-SVG-20010904/DTD/svg10.dtd">
<svg version="1.0" xmlns="http://www.w3.org/2000/svg"
 width="512.000000pt" height="512.000000pt" viewBox="0 0 512.000000 512.000000"
 preserveAspectRatio="xMidYMid meet">
<metadata>
Created by potrace 1.14, written by Peter Selinger 2001-2017
</metadata>
<g transform="translate(0.000000,512.000000) scale(0.100000,-0.100000)"
fill="#000000" stroke="none">
<path d="M1057 4599 c-19 -53 -28 -85 -29 -106 -1 -7 -5 -13 -10 -13 -5 0 -6
-4 -3 -10 8 -13 -19 -52 -30 -42 -5 4 -5 2 -2 -4 4 -6 -5 -24 -18 -40 -14 -16
-25 -37 -25 -47 0 -10 -4 -15 -10 -12 -9 6 -11 2 -14 -35 -1 -8 -8 -14 -16
-12 -8 2 -12 0 -8 -3 4 -4 2 -17 -4 -29 -7 -11 -11 -24 -10 -28 1 -5 -2 -8 -7
-8 -4 0 -25 -25 -45 -55 -20 -30 -34 -55 -31 -55 3 0 -3 -9 -12 -19 -41 -49
-188 -354 -178 -371 3 -4 0 -10 -5 -12 -6 -2 -12 -10 -13 -18 -2 -8 -5 -19 -9
-25 -6 -10 -56 -165 -64 -197 -8 -34 -13 -53 -23 -88 -13 -43 -13 -40 1 -40 6
0 9 3 5 6 -3 3 -1 18 5 33 6 14 12 35 13 46 2 11 12 45 23 75 10 30 20 57 20
60 2 10 15 46 28 77 8 17 14 38 14 46 0 9 4 17 9 19 5 2 11 12 13 23 1 11 6
22 9 25 12 11 67 139 61 144 -3 3 0 6 6 6 6 0 21 18 32 40 45 89 202 311 268
380 l34 35 -37 -49 c-20 -27 -43 -63 -52 -80 -9 -17 -20 -34 -25 -37 -5 -3
-10 -15 -11 -27 0 -11 -4 -19 -7 -18 -3 2 -18 -12 -33 -30 -19 -23 -24 -35
-16 -40 8 -5 9 -3 4 6 -5 9 -4 11 3 6 15 -9 15 -11 -5 -27 -14 -12 -16 -12 -8
0 5 10 4 12 -4 7 -6 -4 -10 -13 -9 -19 2 -12 -19 -57 -31 -67 -3 -3 -12 -17
-20 -32 -8 -15 -18 -25 -22 -22 -5 3 -6 -2 -3 -10 3 -9 1 -16 -5 -16 -6 0 -10
-3 -9 -7 1 -5 -18 -51 -44 -103 -75 -155 -90 -192 -84 -207 3 -8 2 -12 -3 -9
-11 7 -23 -22 -15 -35 3 -5 0 -9 -7 -9 -7 0 -9 -3 -6 -7 4 -3 2 -11 -3 -18 -5
-6 -11 -20 -13 -31 -2 -10 -9 -30 -14 -44 -6 -14 -9 -29 -6 -33 3 -4 0 -13 -5
-20 -6 -7 -12 -24 -14 -37 -2 -14 -7 -31 -12 -39 -5 -8 -3 -16 5 -22 11 -7 11
-9 -2 -9 -11 0 -16 -8 -15 -27 1 -16 -2 -32 -5 -38 -4 -5 -12 -44 -19 -85 -7
-41 -17 -86 -22 -100 -10 -26 -12 -33 -24 -89 -6 -30 -5 -34 11 -27 15 5 16 4
5 -9 -7 -8 -16 -13 -20 -10 -4 3 -6 -9 -5 -25 1 -17 -1 -30 -6 -30 -5 0 -9
-10 -8 -22 0 -13 -2 -47 -5 -75 -2 -29 -1 -55 4 -58 4 -3 7 11 5 30 -1 19 1
35 5 35 4 0 8 17 8 38 2 56 5 72 13 72 8 0 3 -159 -5 -168 -3 -3 -1 -11 5 -18
7 -8 7 -14 -1 -19 -8 -5 -6 -13 5 -25 11 -12 13 -20 5 -25 -8 -5 -8 -11 1 -21
6 -8 8 -14 3 -14 -14 0 -7 -99 8 -118 10 -12 10 -14 1 -8 -17 10 -17 -35 0
-53 10 -11 10 -13 0 -7 -7 4 -13 2 -13 -3 0 -6 4 -11 9 -11 5 0 7 -9 4 -19 -3
-10 1 -29 7 -41 10 -18 9 -21 -1 -15 -9 6 -10 3 -5 -11 12 -28 14 -84 4 -90
-13 -8 12 -35 26 -28 6 3 2 -2 -8 -10 -11 -9 -15 -16 -9 -16 7 0 12 -8 12 -17
1 -42 4 -60 13 -100 6 -24 14 -40 18 -38 5 3 12 1 15 -5 4 -6 2 -9 -3 -8 -6 2
-10 -1 -10 -7 0 -5 4 -9 9 -7 6 1 5 -6 -1 -17 -14 -27 -13 -36 4 -22 11 9 16
9 22 0 4 -7 3 -9 -4 -5 -7 4 -10 -4 -10 -23 1 -19 5 -28 12 -24 6 4 5 -1 -2
-10 -12 -14 -11 -16 8 -12 18 3 20 2 10 -10 -8 -9 -8 -15 0 -20 6 -3 8 -11 5
-16 -4 -5 -1 -9 6 -9 7 0 9 -3 6 -7 -4 -3 1 -15 10 -26 10 -11 12 -17 6 -13
-7 4 -13 2 -13 -3 0 -6 4 -11 8 -11 5 0 14 -11 20 -25 6 -14 8 -25 3 -25 -17
0 -5 -72 15 -88 11 -10 19 -27 18 -39 -1 -13 3 -20 9 -16 6 4 8 0 4 -11 -5
-11 -3 -15 5 -10 7 5 9 2 6 -8 -4 -8 -1 -15 7 -15 15 0 14 13 -3 44 -15 27
-16 46 -2 38 6 -4 8 -10 5 -15 -3 -5 2 -16 11 -25 9 -9 14 -19 10 -22 -3 -4 4
-18 16 -32 l23 -26 -22 19 c-28 24 -30 8 -3 -26 10 -14 16 -29 12 -33 -4 -5 1
-5 10 -2 10 3 20 2 23 -4 4 -5 3 -9 -2 -8 -20 3 -23 -2 -9 -16 17 -18 30 -20
20 -3 -4 7 -3 8 4 4 6 -4 9 -13 6 -21 -3 -8 6 -26 21 -41 14 -14 24 -32 21
-40 -3 -8 0 -11 10 -7 9 3 14 -1 14 -13 0 -16 2 -17 10 -4 8 12 10 12 10 -5 0
-11 14 -31 30 -44 17 -13 30 -30 30 -38 0 -8 5 -11 10 -8 6 3 10 2 10 -4 0 -9
177 -191 186 -191 3 0 15 -10 28 -23 32 -31 70 -61 76 -61 3 0 14 -8 25 -19
21 -19 193 -134 233 -156 12 -7 20 -17 16 -23 -4 -6 -3 -8 4 -4 13 8 63 -14
57 -25 -3 -4 0 -11 6 -15 8 -5 9 -3 4 6 -8 14 -8 13 48 -15 20 -10 37 -22 37
-27 0 -4 7 -5 15 -2 8 4 15 1 15 -5 0 -6 9 -11 21 -11 13 0 18 -4 13 -12 -4
-7 -3 -8 4 -4 6 4 22 1 34 -6 13 -6 28 -13 33 -14 6 -2 51 -17 100 -34 50 -17
98 -34 108 -36 9 -2 26 -6 37 -9 11 -3 30 -7 43 -10 12 -2 36 -8 52 -11 17 -4
40 -8 53 -10 13 -1 29 -7 37 -14 8 -7 16 -7 19 -1 7 10 44 4 63 -11 7 -5 14
-5 18 2 4 7 11 8 18 1 16 -12 427 -11 427 2 0 5 7 4 15 -3 12 -10 15 -10 15 0
0 8 10 11 30 8 17 -3 30 -1 30 4 0 5 6 8 13 6 6 -1 30 2 52 7 22 5 48 9 58 10
9 2 19 4 22 5 3 1 8 3 13 4 60 14 112 32 112 38 0 5 5 6 10 3 11 -7 140 35
193 62 16 8 35 12 43 9 8 -3 12 -2 9 3 -5 9 32 27 48 23 4 -1 7 2 7 6 0 13 50
33 62 26 7 -4 8 -2 4 4 -4 7 7 18 26 28 104 53 332 205 370 248 10 10 18 16
18 13 0 -4 9 2 20 13 11 11 25 20 31 20 5 0 7 5 4 10 -6 9 8 14 27 11 5 0 7 2
7 7 -4 22 3 30 21 27 12 -2 18 0 15 6 -4 5 14 30 39 55 25 25 46 49 46 54 0 5
8 7 18 5 11 -2 19 3 19 10 0 8 -5 12 -11 9 -6 -3 -2 1 8 10 10 8 23 13 27 10
5 -3 6 1 3 9 -3 9 4 21 15 29 12 8 18 18 13 23 -4 4 1 5 10 2 10 -3 20 -1 24
5 4 7 3 8 -4 4 -7 -4 -12 -2 -12 3 0 6 5 11 10 11 6 0 10 8 10 18 0 15 2 15
11 2 9 -12 10 -11 6 7 -3 12 -2 22 2 21 25 -3 33 3 22 16 -9 11 -9 16 0 22 8
4 9 3 5 -4 -4 -7 -2 -12 4 -12 8 0 10 10 6 27 -3 16 -3 22 0 16 7 -16 34 -17
34 -2 0 5 -4 8 -8 5 -5 -3 -9 1 -9 8 0 8 6 12 12 9 7 -2 25 16 39 42 16 27 32
43 39 39 7 -3 1 4 -13 15 -27 22 -21 28 11 11 11 -6 19 -7 18 -3 -4 23 2 43
11 38 6 -3 10 -1 10 4 0 6 -6 11 -12 12 -7 0 -3 4 10 10 22 8 22 29 1 29 -6 0
-7 -5 -4 -10 3 -6 -1 -10 -11 -10 -13 0 -14 3 -4 15 7 8 9 15 4 15 -5 0 -1 5
9 11 9 6 15 15 11 20 -3 5 0 16 6 24 6 8 9 18 6 24 -3 5 1 12 10 15 9 4 14 9
11 13 -11 10 13 32 29 26 12 -4 11 -8 -6 -20 -21 -15 -29 -40 -8 -27 7 4 8 3
4 -5 -4 -6 -12 -8 -18 -5 -6 4 -8 -2 -3 -17 5 -20 4 -21 -5 -9 -10 13 -11 12
-6 -3 4 -12 2 -16 -6 -11 -7 5 -8 3 -3 -6 4 -7 2 -15 -5 -20 -8 -5 -7 -9 4
-13 9 -4 16 -3 16 2 0 5 12 35 27 67 15 33 26 65 25 73 -2 7 1 10 8 6 6 -3 10
-3 9 2 -1 4 6 25 15 47 9 21 15 40 12 43 -3 3 -8 -7 -12 -21 -5 -19 -10 -24
-18 -16 -9 7 -13 5 -13 -5 0 -8 4 -12 9 -9 4 3 8 1 8 -5 0 -15 -20 -24 -21 -9
-1 7 -1 16 0 21 0 4 -5 7 -12 7 -8 0 -7 3 3 9 8 6 17 8 21 5 4 -2 9 3 13 11 3
8 0 17 -6 21 -7 4 -8 3 -4 -4 4 -7 2 -12 -3 -12 -14 0 -14 17 -1 25 6 4 7 11
4 17 -4 6 -2 8 4 4 6 -3 13 -2 17 4 10 16 25 1 18 -18 -3 -9 -3 -14 1 -11 4 4
9 16 11 29 2 12 9 28 15 35 7 9 6 16 -4 25 -13 10 -15 8 -11 -9 4 -20 -9 -29
-18 -13 -2 4 -2 2 -1 -5 2 -7 -1 -15 -7 -19 -17 -10 -19 1 -5 28 10 20 11 29
2 39 -8 9 -8 10 1 5 15 -8 27 10 13 19 -8 5 -7 12 4 23 16 18 31 83 29 120 -1
12 1 22 6 22 4 0 7 20 6 45 0 25 1 45 4 45 4 0 7 11 7 25 1 16 -2 22 -10 18
-8 -5 -8 -3 0 8 6 8 10 23 8 34 -1 11 2 23 9 27 9 6 9 10 -2 17 -8 5 -10 14
-5 22 13 22 14 90 1 82 -7 -3 -3 3 7 15 17 20 15 27 -7 23 -5 -1 -6 3 -2 9 3
5 14 10 23 10 11 0 13 3 6 8 -6 4 -15 18 -19 31 -6 19 -4 23 8 18 11 -4 14 -2
10 8 -3 8 -10 12 -17 9 -6 -3 -2 2 8 10 18 15 15 21 -9 16 -5 -1 -4 4 3 11 17
18 15 39 -5 55 -17 13 -17 14 -1 8 15 -5 17 1 14 50 -2 41 1 59 12 68 13 11
15 10 9 -4 -3 -10 -2 -18 3 -18 5 0 9 11 8 25 -1 14 -5 25 -8 25 -3 0 -7 10
-8 23 -5 68 -8 86 -20 100 -9 10 -10 17 -2 22 6 3 8 11 4 16 -3 5 -10 6 -16 3
-6 -4 -8 -2 -5 3 7 11 -4 81 -30 193 -3 14 -6 35 -6 48 -1 12 -5 22 -10 22 -4
0 -5 5 -2 10 3 6 3 16 -2 23 -4 6 -9 23 -11 37 -1 14 -5 32 -9 40 -3 8 -8 24
-10 35 -2 11 -8 22 -13 23 -6 2 -8 7 -5 12 6 10 -27 103 -40 112 -5 4 -6 8 -2
8 4 0 2 10 -5 23 -7 12 -11 25 -10 30 4 13 -35 77 -42 70 -4 -4 -4 0 -1 9 6
15 -96 229 -123 257 -7 7 -21 30 -32 51 -11 21 -24 42 -30 45 -8 5 -7 11 1 21
9 12 9 13 -3 9 -18 -7 -46 32 -42 58 1 9 -2 17 -7 17 -5 0 -9 6 -9 13 0 7 -9
20 -20 30 -11 9 -20 24 -20 32 0 8 -5 15 -11 15 -5 0 -7 5 -4 10 3 6 2 10 -2
10 -5 0 -17 15 -27 33 l-18 32 25 -30 c130 -159 233 -309 295 -435 15 -30 28
-57 30 -59 1 -3 7 0 12 5 10 10 -52 152 -73 165 -5 3 -7 8 -6 10 4 6 -62 123
-74 130 -6 4 -7 14 -4 23 4 9 3 15 -1 15 -18 -3 -35 2 -29 7 3 4 -2 18 -13 32
-11 13 -17 29 -13 35 3 6 1 7 -5 3 -12 -7 -45 47 -35 58 4 3 -2 6 -13 6 -16 0
-17 2 -4 10 10 6 11 10 3 10 -7 0 -13 5 -13 10 0 10 -56 98 -80 128 -6 6 -8
12 -5 12 3 0 1 8 -4 18 -6 11 -12 30 -15 44 -9 51 -41 128 -53 128 -15 0 -268
-80 -463 -147 -132 -45 -210 -60 -210 -40 0 6 -3 7 -7 4 -3 -4 -12 -2 -20 4
-7 6 -13 8 -13 4 0 -4 -6 -2 -14 4 -8 6 -18 11 -22 10 -5 -1 -22 3 -37 9 -39
16 -89 19 -94 6 -3 -10 14 -14 70 -15 9 0 15 -3 13 -7 -3 -4 5 -9 17 -10 36
-4 51 -7 64 -15 6 -4 23 -8 38 -9 l27 -2 -22 -18 c-11 -9 -28 -14 -37 -11 -12
5 -14 3 -8 -7 5 -9 4 -11 -3 -6 -7 4 -12 2 -12 -4 0 -6 -10 -2 -22 10 -12 11
-28 20 -35 20 -7 0 -13 5 -13 10 0 6 -3 9 -7 9 -29 -5 -53 2 -47 14 5 8 2 8
-9 -2 -12 -9 -17 -10 -17 -2 0 7 -4 10 -9 6 -5 -3 -17 2 -25 11 -9 8 -16 11
-16 6 0 -5 -7 -9 -15 -9 -8 0 -15 3 -15 7 0 3 -9 6 -20 7 -11 1 -20 -2 -20 -6
0 -4 6 -8 13 -9 14 -1 52 -9 77 -17 25 -8 63 -16 78 -17 6 -1 12 -5 12 -9 0
-12 -18 -20 -22 -11 -1 5 -18 12 -36 15 -23 5 -31 3 -26 -5 4 -7 3 -8 -5 -4
-6 4 -9 12 -6 17 4 5 2 9 -4 9 -5 0 -12 -6 -14 -12 -3 -8 -6 -5 -6 6 -1 15 -4
16 -16 6 -9 -7 -18 -10 -22 -6 -3 3 0 6 8 6 12 0 12 2 -1 10 -9 5 -19 5 -27
-2 -8 -6 -16 -8 -20 -4 -3 3 -1 6 6 6 7 0 10 4 6 10 -3 5 -12 7 -20 3 -8 -3
-15 0 -15 6 0 6 3 10 8 9 4 0 18 4 32 10 17 7 20 11 8 11 -9 1 -20 -4 -23 -9
-4 -6 -10 -8 -15 -5 -5 3 -18 -3 -29 -14 -19 -19 -20 -19 -18 -1 1 10 5 16 9
14 4 -3 8 0 8 5 0 15 -40 7 -52 -10 -8 -11 -9 -10 -4 5 5 16 1 18 -33 14 -22
-2 -37 0 -35 4 2 3 0 9 -6 13 -5 3 -10 3 -11 -2 0 -4 -2 -16 -4 -26 -2 -12 1
-17 10 -13 7 2 19 -3 27 -12 11 -15 11 -16 -2 -6 -8 5 -25 9 -37 8 -13 0 -23
3 -23 7 0 5 4 9 9 9 13 0 7 33 -7 38 -7 2 -12 -2 -12 -9 0 -7 -3 -9 -7 -6 -3
4 -13 1 -22 -5 -10 -8 -9 -4 3 10 23 26 11 29 -18 5 -20 -17 -20 -17 -6 1 14
18 13 19 -3 13 -11 -4 -16 -3 -12 3 3 6 1 10 -4 10 -6 0 -11 5 -11 11 0 8 4 8
15 -1 20 -17 74 -19 87 -3 8 10 7 13 -3 14 -8 0 -27 2 -44 4 -22 3 -25 2 -11
-4 12 -4 15 -10 9 -14 -17 -11 -49 19 -38 35 6 8 3 7 -5 -2 -8 -9 -19 -17 -25
-17 -5 -1 -11 -7 -13 -15 -2 -9 0 -8 7 2 13 18 14 1 1 -20 -7 -11 -11 -8 -20
15 -11 28 -12 29 -25 12 -7 -10 -15 -13 -16 -8 -2 6 -28 13 -57 14 -38 3 -52
0 -48 -8 6 -15 -42 -17 -51 -2 -4 6 0 8 10 4 9 -3 19 -2 22 3 5 8 -53 5 -62
-4 -3 -2 -17 0 -33 4 -25 7 -28 6 -25 -11 2 -10 0 -19 -5 -19 -5 0 -7 -8 -4
-17 4 -14 3 -15 -4 -5 -11 16 -10 16 -44 3 -27 -10 -40 1 -18 14 6 4 8 12 4
18 -3 7 1 4 9 -6 10 -12 17 -14 22 -7 3 5 11 8 16 5 5 -4 9 3 9 14 0 12 -5 21
-11 21 -5 0 -7 -4 -4 -10 3 -5 2 -10 -4 -10 -5 0 -12 6 -14 13 -4 9 -6 9 -6 0
-1 -7 -8 -10 -18 -6 -12 5 -15 2 -11 -8 5 -12 -3 -15 -41 -14 -25 0 -52 4 -60
9 -10 6 -12 5 -7 -2 4 -7 2 -12 -3 -12 -6 0 -11 6 -11 14 0 11 -26 15 -37 6
-5 -4 -23 -7 -44 -9 -11 0 -17 -5 -14 -11 3 -5 1 -10 -4 -10 -6 0 -11 5 -11
10 0 7 -6 7 -20 0 -15 -8 -20 -8 -20 2 0 10 -2 10 -8 1 -5 -7 -20 -14 -35 -15
-17 -1 -27 -8 -27 -18 0 -12 -2 -12 -9 -2 -7 12 -18 11 -65 -4 -31 -10 -56
-21 -56 -24 0 -4 -10 -6 -22 -5 -12 1 -35 -5 -51 -13 -34 -17 -34 -17 -207 42
-241 81 -447 146 -461 146 -8 0 -22 -22 -32 -51z m1523 -53 c0 -2 -9 -2 -20 1
-11 3 -20 9 -20 15 0 5 9 4 20 -2 11 -6 20 -12 20 -14z m40 -2 c0 -2 -9 0 -20
6 -11 6 -20 13 -20 16 0 2 9 0 20 -6 11 -6 20 -13 20 -16z m-450 -5 c0 -11
-36 -7 -47 6 -5 4 -3 5 4 1 6 -3 14 -2 18 4 7 12 25 4 25 -11z m260 13 c0 -10
-22 -32 -32 -32 -4 0 -8 5 -8 11 0 5 4 8 9 4 5 -3 12 -1 15 4 4 5 -2 12 -11
14 -14 4 -13 5 5 6 12 0 22 -3 22 -7z m40 -14 c0 -6 -6 -5 -15 2 -8 7 -15 14
-15 16 0 2 7 1 15 -2 8 -4 15 -11 15 -16z m-300 -11 c19 2 55 5 80 6 41 3 45
1 45 -20 0 -17 -3 -20 -10 -11 -12 15 -55 19 -55 5 0 -5 -8 -3 -17 4 -13 11
-15 11 -9 1 6 -11 1 -12 -24 -9 -25 4 -29 3 -20 -8 8 -10 8 -15 -1 -21 -7 -4
-9 -3 -6 3 4 6 -6 13 -24 15 -16 3 -32 1 -35 -3 -2 -5 -12 -5 -22 -2 -15 6
-15 5 1 -14 14 -16 15 -23 6 -29 -7 -4 -10 -3 -7 2 3 5 -3 17 -14 27 -10 9
-18 13 -18 8 0 -11 -19 -9 -39 3 -9 6 -12 5 -8 -1 7 -12 -47 -35 -57 -26 -3 4
-6 -1 -6 -11 0 -11 4 -14 13 -9 6 4 19 9 27 11 25 5 45 10 45 12 0 1 8 3 18 5
9 2 15 -1 11 -6 -3 -5 -12 -9 -20 -9 -8 0 -13 -4 -10 -8 3 -5 -5 -8 -17 -7
-12 1 -32 -1 -43 -6 -14 -5 -29 -2 -43 7 -11 8 -21 13 -21 10 0 -3 0 -9 0 -13
0 -5 4 -8 9 -8 5 0 13 -4 18 -9 4 -5 3 -6 -4 -2 -6 3 -14 2 -18 -3 -3 -6 -12
-8 -20 -4 -8 3 -15 -1 -15 -8 0 -7 -3 -9 -6 -6 -4 4 -1 13 6 22 11 13 10 14
-5 9 -13 -5 -16 -4 -11 4 5 8 2 10 -9 5 -13 -4 -14 -7 -3 -14 11 -7 10 -10 -1
-21 -10 -10 -12 -10 -7 0 5 8 1 12 -11 12 -25 0 -73 23 -73 34 0 5 3 6 7 3 3
-4 16 1 27 10 20 17 20 17 6 -1 -14 -18 -14 -19 10 -6 14 8 34 14 44 15 11 1
22 8 24 15 3 9 6 9 12 1 9 -15 60 3 60 21 0 10 2 10 9 -1 7 -11 13 -10 35 4
14 10 26 14 26 10 0 -4 6 -3 13 2 6 6 27 9 44 7 18 -1 35 2 39 7 3 5 12 5 22
0 9 -5 33 -7 52 -4z m354 5 c2 -4 -5 -9 -17 -9 -17 -2 -19 0 -7 7 18 12 18 12
24 2z m141 -10 c-3 -3 -11 0 -18 7 -9 10 -8 11 6 5 10 -3 15 -9 12 -12z m49 2
c3 -8 2 -12 -4 -9 -6 3 -10 10 -10 16 0 14 7 11 14 -7z m-260 -11 c4 -9 2 -21
-4 -27 -8 -8 -9 -6 -4 8 5 12 4 17 -3 13 -5 -3 -10 0 -10 8 0 20 13 19 21 -2z
m129 10 c-7 -2 -21 -2 -30 0 -10 3 -4 5 12 5 17 0 24 -2 18 -5z m44 1 c-3 -3
-12 -4 -19 -1 -8 3 -5 6 6 6 11 1 17 -2 13 -5z m-90 -17 c6 2 14 0 17 -5 3 -5
-5 -12 -19 -14 -13 -3 -22 -1 -19 3 3 5 1 9 -5 9 -5 0 -13 -4 -16 -10 -3 -5
-12 -10 -18 -10 -7 0 -6 4 3 10 10 6 11 10 3 10 -7 0 -13 4 -13 9 0 6 12 6 28
2 15 -4 32 -6 39 -4z m-116 -14 c10 -11 10 -14 2 -9 -8 4 -13 2 -14 -6 0 -10
-2 -10 -6 -1 -3 9 -10 10 -24 3 -10 -6 -19 -7 -19 -3 0 5 10 13 23 19 12 7 23
12 23 13 1 0 8 -7 15 -16z m269 6 c0 -5 5 -8 11 -6 6 1 14 -5 16 -13 3 -10 2
-11 -4 -4 -4 6 -21 10 -38 8 -23 -2 -26 -1 -15 7 11 7 5 8 -20 4 -19 -4 -37
-7 -40 -7 -19 -1 -30 3 -30 10 0 5 27 9 60 9 33 0 60 -4 60 -8z m-780 -3 c0
-2 -7 -7 -16 -10 -8 -3 -12 -2 -9 4 6 10 25 14 25 6z m433 -19 c-5 -8 -8 -7
-11 1 -3 10 -7 10 -20 0 -15 -12 -15 -11 -4 4 14 18 47 13 35 -5z m427 13 c11
6 17 5 17 -4 0 -7 -10 -11 -21 -10 -12 1 -24 3 -28 3 -5 1 -8 6 -8 13 0 9 3 9
12 0 7 -7 17 -8 28 -2z m-665 -10 c-3 -6 4 -10 17 -11 13 0 17 -3 10 -6 -18
-7 -44 5 -37 17 3 5 8 10 11 10 3 0 2 -4 -1 -10z m129 1 c-8 -9 -43 -11 -48
-3 -2 4 9 7 25 7 15 1 26 -1 23 -4z m51 -1 c3 -5 1 -10 -4 -10 -6 0 -11 5 -11
10 0 6 2 10 4 10 3 0 8 -4 11 -10z m985 -74 c7 -9 6 -13 -5 -13 -8 0 -12 4 -9
9 3 4 -4 8 -15 8 -12 0 -21 4 -21 9 0 12 37 2 50 -13z m831 -63 c13 -16 12
-17 -3 -4 -17 13 -22 21 -14 21 2 0 10 -8 17 -17z m-1636 -113 c-2 -3 5 -6 15
-6 10 0 17 3 15 6 -3 5 131 5 145 0 3 -1 36 -1 74 0 37 1 66 -2 63 -7 -3 -4
18 -9 47 -9 50 -2 208 -35 254 -54 20 -9 21 -13 11 -32 -7 -12 -14 -63 -17
-113 -5 -109 18 -192 78 -271 75 -99 168 -148 303 -160 119 -11 204 -61 357
-214 119 -118 220 -249 220 -283 0 -9 5 -19 12 -23 7 -4 8 -3 4 4 -4 7 -5 12
-2 12 21 0 103 -228 92 -256 -4 -10 -2 -12 6 -8 7 5 9 -1 6 -19 -3 -16 -1 -24
5 -20 6 4 8 -4 5 -20 -3 -16 -1 -24 5 -20 6 3 8 -6 5 -25 -2 -17 -1 -29 3 -27
11 8 17 -42 6 -60 -6 -12 -6 -16 1 -11 5 3 12 -7 14 -25 3 -16 1 -32 -4 -35
-4 -3 -2 -14 6 -25 9 -14 11 -32 6 -59 -4 -22 -4 -40 0 -40 4 0 6 -18 4 -40
l-3 -40 24 17 c13 10 19 20 14 21 -13 5 -11 32 2 32 5 0 7 5 4 10 -4 6 -11 7
-17 4 -7 -4 -8 -2 -4 5 4 6 12 9 17 6 5 -4 9 -1 9 4 0 6 -4 11 -10 11 -5 0
-10 4 -10 9 0 5 9 7 19 4 15 -4 19 -12 17 -36 -2 -21 -8 -31 -17 -29 -8 1 -6
-4 5 -13 11 -8 14 -15 8 -15 -7 0 -12 -11 -12 -25 0 -14 -5 -25 -11 -25 -6 0
-8 9 -3 23 6 21 6 22 -13 4 -14 -12 -21 -31 -21 -60 0 -23 -1 -44 -3 -47 -1
-3 -2 -19 -3 -35 -1 -17 -6 -37 -10 -44 -5 -8 -3 -17 5 -22 8 -5 9 -9 3 -9
-10 0 -25 -56 -30 -110 -1 -8 -4 -22 -7 -30 -4 -8 -9 -26 -11 -40 -3 -14 -5
-26 -7 -27 -1 -2 -3 -7 -4 -13 -1 -5 -4 -12 -5 -15 -1 -3 -3 -8 -5 -12 -1 -5
-7 -21 -13 -36 -7 -16 -12 -33 -12 -38 0 -29 -103 -219 -168 -309 -76 -105
-281 -321 -357 -376 -22 -16 -42 -31 -45 -34 -18 -20 -173 -109 -181 -104 -5
3 -8 0 -7 -8 2 -7 -5 -12 -14 -12 -10 1 -16 -3 -15 -10 1 -6 -4 -10 -10 -9
-15 3 -17 -13 -4 -22 6 -3 14 3 20 12 6 10 11 15 11 10 0 -4 10 -1 23 8 13 8
27 12 32 8 4 -5 5 -2 1 5 -4 7 -1 12 8 12 9 0 16 3 16 8 0 4 23 21 50 37 27
17 50 33 50 38 0 4 6 7 14 7 8 0 16 3 18 8 2 4 32 29 68 56 36 27 73 60 83 73
10 13 23 21 27 18 8 -5 23 10 26 25 3 16 17 40 23 40 18 0 5 -35 -26 -67 -33
-35 -43 -63 -23 -63 6 0 10 7 8 16 -2 10 5 18 16 20 10 1 24 8 30 14 8 8 6 9
-9 4 -18 -7 -19 -6 -6 10 8 9 21 14 29 11 12 -4 13 -3 2 10 -10 12 -10 15 1
15 12 0 12 2 0 9 -16 10 -4 18 26 16 14 -2 20 2 16 11 -6 16 -23 19 -23 3 0
-5 -5 -7 -10 -4 -7 4 2 22 22 44 67 76 83 96 80 103 -3 12 16 10 23 -2 3 -6
-1 -13 -9 -16 -9 -3 -13 -11 -9 -18 3 -6 3 -8 -2 -4 -4 4 -23 -13 -42 -38 -26
-34 -32 -49 -24 -57 8 -8 11 -5 11 12 0 16 4 21 15 17 9 -3 15 0 15 8 0 7 13
27 29 44 16 16 27 32 24 35 -2 3 5 10 16 17 12 6 19 15 16 21 -4 6 -13 6 -24
0 -13 -7 -18 -6 -18 3 0 8 11 12 29 11 15 -1 26 0 23 3 -2 3 2 10 11 17 14 10
14 13 -3 26 -16 12 -17 12 -6 -2 11 -13 9 -18 -15 -28 -24 -10 -25 -10 -9 3
10 7 16 20 15 27 -3 14 3 15 37 4 18 -6 18 -5 2 5 -17 11 -16 13 3 40 11 15
20 33 20 39 0 6 5 11 11 11 6 0 9 7 5 15 -3 10 1 15 11 15 9 0 13 3 10 7 -4 3
-2 12 4 20 6 7 8 13 4 13 -5 0 0 9 11 21 10 12 18 23 17 25 -7 11 -2 24 7 19
6 -3 7 1 4 9 -3 9 -1 16 6 16 6 0 8 5 5 10 -3 6 -1 10 6 10 8 0 7 5 -2 17 -12
15 -12 16 4 10 9 -3 17 -2 17 3 0 6 -6 10 -12 10 -7 1 -2 10 11 20 13 11 18
20 11 20 -10 0 -10 3 0 15 6 8 9 19 5 25 -3 5 -1 10 6 10 7 0 10 3 7 6 -4 3 0
17 8 32 10 19 10 29 2 39 -9 11 -7 12 8 6 17 -6 18 -5 5 11 -11 13 -11 16 -1
14 7 -2 15 3 18 11 3 10 0 12 -11 8 -12 -4 -15 -1 -12 15 3 11 7 23 11 27 4 3
4 -2 1 -12 -5 -13 -3 -17 5 -15 7 3 13 14 14 25 1 11 5 26 10 34 4 7 9 20 10
29 2 8 6 34 10 57 5 34 3 44 -10 49 -17 7 -23 44 -6 44 6 0 9 -3 9 -7 -4 -22
3 -31 19 -28 11 2 19 -3 19 -10 0 -8 -4 -12 -9 -9 -4 3 -8 -13 -8 -36 0 -29 4
-39 12 -34 7 4 8 3 4 -5 -4 -6 -12 -8 -18 -5 -6 4 -8 -1 -4 -14 4 -11 2 -23
-4 -27 -5 -3 -10 -14 -10 -23 0 -13 2 -13 16 4 14 18 14 18 3 -6 -7 -14 -12
-26 -11 -27 7 -10 0 -33 -9 -33 -5 0 -7 5 -3 12 5 7 3 8 -6 3 -10 -6 -10 -10
3 -20 9 -6 14 -20 12 -31 -2 -10 -4 -19 -5 -19 -1 0 -3 -11 -5 -25 -1 -14 -7
-37 -13 -51 -6 -15 -8 -30 -4 -35 4 -4 -2 -4 -12 0 -14 5 -16 3 -9 -6 5 -7 8
-19 7 -25 -1 -7 -2 -17 -3 -23 0 -5 -6 -10 -12 -10 -8 0 -8 5 1 15 9 10 9 15
1 15 -6 0 -12 -4 -12 -10 -1 -5 -2 -15 -3 -20 0 -6 -8 -15 -16 -20 -8 -5 -10
-10 -4 -10 5 0 15 5 22 12 17 17 15 7 -9 -54 -11 -29 -30 -61 -42 -71 -12 -10
-16 -16 -9 -12 17 9 15 -7 -4 -31 -8 -10 -12 -13 -8 -5 5 9 3 12 -5 7 -6 -4
-9 -11 -6 -16 11 -17 -91 -178 -191 -301 -61 -75 -253 -259 -270 -259 -12 0
-52 -44 -48 -52 6 -10 -37 12 -46 23 -3 4 -12 0 -20 -9 -13 -14 -13 -15 1 -10
30 12 41 -7 17 -28 -17 -14 -19 -14 -10 -2 12 15 10 17 -15 14 -15 -1 -35 2
-43 8 -13 9 -13 9 -2 -5 11 -14 8 -20 -22 -37 -19 -11 -37 -18 -39 -14 -2 4
-3 2 -1 -4 1 -6 -2 -17 -6 -25 -5 -8 -4 -20 3 -29 11 -13 10 -13 -5 -1 -15 11
-18 11 -18 0 0 -12 -2 -12 -9 0 -7 11 -16 10 -47 -10 -22 -13 -42 -23 -46 -21
-5 1 -8 -3 -8 -9 0 -6 -7 -8 -16 -5 -15 6 -15 4 -3 -11 12 -15 12 -16 -3 -10
-21 8 -50 -2 -43 -14 3 -4 -4 -6 -16 -4 -15 3 -19 0 -16 -10 4 -10 -2 -12 -25
-10 -27 4 -28 3 -16 -12 7 -10 8 -14 1 -10 -6 4 -23 3 -38 -3 -17 -7 -24 -7
-20 0 3 6 1 10 -4 10 -6 0 -11 -4 -11 -10 0 -5 -9 -14 -19 -20 -15 -7 -23 -6
-35 6 -9 9 -13 20 -10 26 4 7 2 8 -4 4 -8 -5 -8 -15 -1 -34 6 -14 7 -23 3 -19
-4 4 -14 1 -23 -6 -14 -10 -14 -10 -3 4 10 14 10 18 -4 23 -9 3 -22 2 -28 -3
-7 -6 -27 -13 -46 -16 -19 -4 -39 -8 -45 -9 -5 -1 -15 -5 -22 -9 -6 -4 -19 -4
-29 0 -10 3 -15 2 -12 -3 4 -5 -13 -7 -39 -5 -35 2 -44 0 -40 -10 2 -8 10 -13
16 -12 6 2 11 -2 11 -7 0 -23 -48 6 -50 30 0 7 31 11 93 13 41 1 45 3 27 12
-11 6 -18 14 -14 18 4 3 12 4 17 0 13 -8 56 -11 55 -3 -1 18 4 21 17 10 13
-11 14 -10 9 4 -5 13 -1 15 17 12 13 -2 38 4 54 12 17 9 36 15 43 14 6 -2 12
1 12 6 0 5 6 9 13 10 32 3 51 10 55 20 2 7 8 10 13 7 5 -4 48 13 96 36 103 49
97 45 88 58 -4 8 -11 6 -21 -4 -9 -8 -20 -13 -25 -10 -5 4 -9 2 -9 -4 0 -5
-16 -15 -35 -22 -19 -7 -35 -16 -35 -19 0 -4 -6 -7 -12 -8 -20 -1 -40 -8 -80
-26 -21 -9 -42 -16 -48 -16 -5 0 -10 -6 -11 -12 0 -10 -2 -10 -6 -1 -5 14 -38
-1 -60 -27 -11 -13 -12 -12 -6 5 6 16 4 18 -8 9 -8 -7 -33 -14 -57 -18 -24 -3
-48 -9 -54 -12 -6 -4 -21 -8 -32 -9 -12 -1 -46 -5 -76 -10 -30 -5 -59 -8 -63
-7 -5 2 -6 -2 -2 -8 3 -6 12 -7 18 -3 7 4 6 0 -2 -10 -11 -15 -11 -17 2 -17 8
0 17 -6 20 -13 3 -8 -1 -14 -9 -14 -7 0 -11 4 -9 8 3 4 -2 10 -11 13 -12 4
-15 2 -10 -9 3 -8 2 -15 -3 -15 -5 0 -11 9 -14 20 -3 11 -1 18 3 15 5 -3 11
-1 14 4 4 5 -2 12 -11 15 -24 7 -133 4 -133 -3 1 -24 50 -53 50 -30 0 4 7 5
17 2 12 -5 14 -3 8 7 -5 9 -4 11 4 6 6 -4 9 -12 6 -17 -4 -5 -1 -9 4 -9 6 0
11 6 11 13 0 8 3 7 10 -3 12 -19 -8 -27 -59 -22 -32 3 -41 9 -55 39 -14 29
-19 33 -31 23 -12 -10 -15 -10 -15 0 0 8 -8 10 -25 6 -14 -4 -25 -3 -24 1 3
18 -2 24 -13 16 -17 -10 -42 -10 -49 1 -4 4 -22 9 -40 10 -19 1 -38 4 -44 7
-5 4 -23 5 -38 3 -17 -2 -30 3 -33 11 -3 8 -30 19 -60 26 -30 7 -54 16 -54 21
0 4 -9 8 -20 8 -11 0 -28 4 -38 9 -9 5 -47 23 -84 41 -38 17 -68 36 -68 41 0
6 -3 8 -7 6 -13 -7 -55 12 -49 22 3 5 -4 7 -16 3 -14 -3 -19 -1 -14 6 5 8 2
10 -8 6 -9 -3 -16 -1 -16 5 0 6 -17 20 -37 31 -41 23 -95 60 -130 90 -13 11
-23 17 -23 14 0 -4 -7 -1 -15 6 -8 7 -12 17 -8 23 3 6 1 7 -5 3 -15 -9 -193
163 -279 269 -123 153 -190 271 -243 425 -12 36 -25 72 -28 80 -3 8 -7 26 -9
40 -2 13 -10 31 -16 39 -7 9 -8 12 -1 8 7 -4 6 11 -3 46 -7 28 -13 58 -13 66
0 7 -8 20 -17 28 -10 7 -13 12 -8 11 6 -2 10 2 10 7 0 6 -4 9 -9 7 -12 -4 -37
19 -30 29 3 5 0 9 -5 9 -17 0 -13 -32 6 -46 17 -13 17 -14 -1 -7 -13 4 -17 2
-14 -8 3 -8 12 -13 20 -11 8 1 15 -4 15 -12 0 -8 -6 -12 -14 -9 -9 3 -11 0 -7
-10 3 -9 12 -13 19 -11 7 3 16 1 20 -5 3 -6 0 -9 -8 -5 -8 3 -18 0 -23 -7 -5
-8 -3 -10 6 -4 10 6 12 4 7 -8 -8 -20 21 -107 36 -107 6 0 8 -3 4 -6 -3 -4 1
-23 9 -43 8 -20 16 -48 16 -63 1 -15 5 -25 10 -22 7 5 13 -18 9 -39 -1 -5 4
-5 10 -1 9 5 10 2 6 -9 -3 -10 -2 -17 4 -17 6 0 7 -4 4 -10 -3 -5 -2 -10 3
-10 5 0 12 -14 16 -31 4 -20 10 -28 17 -23 8 5 9 3 5 -5 -5 -7 0 -21 9 -31 10
-11 15 -26 12 -35 -4 -8 -1 -14 6 -12 7 1 11 -4 9 -11 -1 -8 2 -11 8 -7 6 3
10 -3 10 -15 0 -15 5 -20 14 -17 10 4 12 0 8 -16 -5 -19 -8 -17 -40 19 -28 32
-30 33 -13 7 12 -18 26 -35 32 -38 5 -4 7 -11 3 -16 -3 -5 0 -8 8 -7 7 2 12
-3 10 -9 -1 -7 2 -13 8 -13 5 0 10 -7 10 -15 0 -14 12 -20 33 -16 5 1 7 -4 4
-11 -6 -18 12 -50 24 -43 5 4 9 -1 9 -10 0 -9 6 -22 13 -29 47 -49 75 -85 70
-90 -4 -3 2 -6 11 -6 12 0 16 -5 12 -16 -3 -8 -2 -12 4 -9 16 10 34 -6 19 -17
-11 -6 -9 -8 6 -6 12 2 19 -2 17 -10 -1 -8 2 -11 8 -7 9 6 14 -7 11 -28 0 -4
2 -6 6 -6 20 3 34 -2 28 -11 -3 -5 1 -10 10 -10 9 0 13 -4 10 -10 -3 -5 -1
-10 6 -10 6 0 18 -8 25 -17 7 -10 14 -13 14 -8 0 6 -41 51 -90 102 -50 50 -90
97 -90 103 0 6 -4 9 -8 6 -4 -2 -14 9 -21 25 -7 16 -20 29 -29 29 -13 0 -14 2
-3 13 10 10 19 3 49 -33 20 -24 37 -49 37 -55 0 -5 7 -10 15 -10 8 -1 14 -6
12 -13 -1 -7 4 -11 10 -10 7 2 12 -3 10 -10 -1 -6 3 -11 10 -10 7 2 12 -2 13
-9 0 -6 4 -15 9 -20 5 -5 6 -3 2 5 -4 6 -2 12 3 12 6 0 11 -6 11 -13 0 -7 14
-23 30 -36 17 -12 28 -26 25 -31 -3 -5 0 -12 6 -16 8 -4 9 -3 5 4 -13 21 3 13
77 -40 88 -64 98 -73 89 -83 -4 -5 -2 -5 5 -2 6 4 18 4 27 1 15 -6 15 -8 -1
-21 -17 -13 -17 -14 2 -4 22 11 59 -4 50 -20 -4 -5 -11 -6 -17 -3 -7 4 -8 2
-4 -5 5 -8 12 -9 20 -2 8 7 25 3 54 -14 24 -13 40 -19 37 -12 -4 7 0 4 8 -5 8
-10 22 -18 31 -18 9 0 16 -4 16 -10 0 -5 7 -10 16 -10 8 0 12 -5 9 -10 -4 -6
-3 -10 2 -9 22 4 43 -2 57 -17 9 -8 16 -11 16 -6 0 6 17 1 37 -9 21 -10 43
-19 50 -19 11 0 11 -5 3 -20 -8 -16 -6 -21 12 -30 20 -10 21 -9 6 3 -25 20 -7
45 24 30 52 -25 87 -35 99 -27 9 5 10 2 5 -12 -5 -15 -4 -16 5 -7 14 14 41 5
32 -11 -3 -6 -1 -6 8 2 16 15 33 16 23 0 -4 -7 -3 -8 4 -4 7 4 12 2 12 -3 0
-6 3 -10 8 -10 4 1 9 0 12 -1 3 -1 18 -3 33 -4 22 -2 27 1 22 13 -4 14 -3 14
8 -1 9 -12 18 -13 30 -7 13 8 15 6 10 -7 -5 -14 -2 -16 15 -11 14 3 29 -1 39
-11 16 -16 15 -17 -8 -21 -23 -3 -23 -4 -4 -12 l20 -9 -20 1 c-11 1 -22 0 -25
-1 -14 -7 -80 -6 -80 0 0 5 16 7 35 6 36 -3 55 8 33 18 -9 4 -8 5 2 5 29 -2
43 1 36 8 -3 4 -23 7 -44 8 -21 1 -43 4 -50 9 -7 4 -12 2 -12 -6 0 -9 -3 -9
-10 2 -8 12 -10 12 -10 1 0 -11 -5 -10 -24 2 -18 12 -26 13 -36 4 -10 -9 -11
-9 -6 3 4 8 -2 4 -14 -10 -18 -21 -20 -22 -11 -4 9 20 7 22 -22 28 -17 3 -43
8 -56 11 -14 2 -30 0 -38 -6 -15 -13 -18 2 -3 17 7 7 6 11 -4 11 -8 0 -13 -4
-11 -8 7 -10 -42 -17 -57 -8 -7 5 -8 9 -3 9 13 0 -17 20 -30 20 -5 0 -3 -5 5
-10 8 -5 10 -10 4 -10 -6 0 -17 7 -24 15 -7 8 -18 15 -24 15 -6 0 -4 -5 4 -10
8 -5 10 -10 4 -10 -5 0 -19 8 -30 18 -21 20 -58 37 -49 23 3 -5 1 -13 -5 -16
-6 -4 -10 -3 -9 2 4 21 -3 31 -26 41 -31 14 -48 15 -40 3 3 -5 1 -12 -4 -15
-4 -3 -8 4 -7 17 1 16 -4 22 -20 21 -12 0 -20 4 -18 10 2 6 -11 19 -28 29
l-33 17 24 -20 c13 -11 18 -20 13 -20 -6 0 -14 5 -17 11 -4 6 -13 8 -21 5 -9
-3 -11 0 -7 11 4 11 2 14 -5 9 -8 -5 -10 -1 -5 10 4 11 2 15 -4 11 -12 -8 -78
17 -88 33 -4 6 -11 7 -17 4 -6 -4 -8 -2 -5 3 4 6 -3 13 -14 16 -12 3 -18 10
-14 17 4 7 -2 9 -19 6 -15 -3 -24 -1 -21 4 6 9 -23 22 -35 15 -4 -2 -6 6 -6
18 3 32 -4 40 -22 25 -13 -11 -15 -10 -9 5 4 10 3 16 -2 12 -23 -14 -240 204
-331 333 -36 51 -65 96 -64 100 0 4 -8 16 -18 26 -10 11 -18 25 -18 32 0 6 -7
17 -16 25 -8 7 -13 21 -11 31 3 10 0 21 -5 25 -7 3 -8 1 -4 -5 4 -7 5 -12 2
-12 -19 0 -80 158 -67 174 5 6 5 21 -1 36 -6 15 -12 20 -15 12 -3 -7 1 -19 7
-27 8 -10 9 -15 2 -15 -10 0 -18 17 -27 59 -3 12 -7 30 -10 42 -2 11 -7 29
-10 39 -3 10 -1 21 5 25 13 8 13 25 -1 25 -5 0 -7 -6 -3 -12 4 -7 3 -10 -1 -5
-14 13 -13 47 2 47 8 0 11 5 8 10 -4 6 -9 23 -11 38 -3 15 -9 28 -14 30 -4 2
-6 13 -3 25 4 18 3 19 -6 7 -7 -9 -11 -10 -11 -3 0 6 4 14 9 17 5 3 7 15 4 25
-3 13 2 21 16 26 23 7 27 20 11 30 -6 3 -13 -1 -16 -9 -3 -9 -9 -16 -13 -16
-9 0 -6 48 3 57 4 5 6 1 4 -7 -2 -9 3 -14 13 -12 19 3 44 -44 28 -54 -7 -4 -7
-10 -1 -16 17 -17 32 1 28 35 -3 18 -5 32 -6 32 -7 0 -4 133 3 143 5 7 6 12 0
12 -7 0 -8 24 -4 88 1 8 6 10 14 6 9 -6 9 -4 1 7 -11 16 -11 21 5 132 6 43 11
81 11 83 0 3 5 2 10 -1 12 -8 13 5 1 25 -12 18 -2 37 11 19 6 -10 7 -6 3 11
-6 27 42 188 70 238 9 15 13 18 10 7 -16 -46 -15 -49 0 -22 9 16 14 35 11 43
-3 8 -1 14 4 14 5 0 21 22 35 49 34 68 109 158 230 276 129 126 222 179 331
189 99 8 163 31 226 81 142 111 199 317 133 478 -4 10 -4 17 1 16 10 -3 64 11
79 20 6 3 17 7 25 8 42 8 97 16 115 17 11 1 22 4 25 7 3 4 43 11 90 16 107 11
110 11 105 3z m-1575 -129 c0 -5 -7 -12 -16 -15 -14 -5 -15 -4 -4 9 14 17 20
19 20 6z m3660 -831 c0 -11 -2 -20 -4 -20 -2 0 -6 9 -9 20 -3 11 -1 20 4 20 5
0 9 -9 9 -20z m-4009 -148 c-16 -66 -33 -142 -37 -169 -6 -40 -9 -44 -14 -23
-4 14 -3 27 1 30 4 3 10 32 14 65 4 33 10 69 12 80 3 11 6 28 6 38 1 9 5 17
10 17 5 0 7 9 4 20 -3 11 -2 18 3 15 4 -2 10 9 14 27 3 17 8 29 11 26 3 -3 -8
-59 -24 -126z m4026 106 c1 -12 7 -33 12 -47 6 -14 13 -37 15 -51 3 -14 5 -26
5 -27 1 -2 1 -4 1 -5 1 -2 5 -21 11 -43 5 -22 11 -67 14 -100 4 -52 3 -55 -5
-20 -5 22 -11 54 -14 70 -3 17 -17 75 -31 129 -21 83 -24 116 -12 116 2 0 3
-10 4 -22z m-4117 -305 c-11 -17 -11 -17 -6 0 3 10 6 24 7 30 0 9 2 9 5 0 3
-7 0 -20 -6 -30z m4226 -20 c11 -76 12 -93 4 -93 -5 0 -9 15 -9 33 0 17 -2 47
-5 66 -3 19 -3 32 0 29 3 -4 8 -19 10 -35z m-4189 -22 c0 -11 -5 -18 -9 -15
-4 3 -5 11 -1 19 7 21 12 19 10 -4z m4156 -11 c3 -11 2 -22 -2 -24 -4 -3 -8 6
-9 20 -2 29 4 31 11 4z m-425 -165 c-3 -3 -9 2 -12 12 -6 14 -5 15 5 6 7 -7
10 -15 7 -18z m-3316 -37 c-6 -6 -7 0 -4 19 5 21 7 23 10 9 2 -10 0 -22 -6
-28z m3327 -8 c11 -24 11 -24 -3 -6 -9 11 -16 24 -16 30 0 12 5 7 19 -24z
m-3325 -22 c-3 -4 -9 -8 -15 -8 -5 0 -9 4 -9 8 0 5 7 9 15 9 8 0 12 -4 9 -9z
m3351 -95 c6 -57 5 -62 -11 -56 -11 4 -13 8 -6 11 7 2 12 8 12 13 0 6 -4 7
-10 4 -5 -3 -10 -4 -10 -1 0 2 -3 13 -6 23 -5 15 -4 16 5 3 9 -12 11 -8 9 20
-2 22 -8 34 -15 33 -7 -2 -13 2 -13 7 0 6 5 10 11 10 5 0 7 6 3 13 -4 6 0 5 9
-3 9 -9 18 -41 22 -77z m-3369 42 c-3 -8 3 -19 12 -25 16 -11 16 -11 0 -6 -24
7 -31 -9 -12 -28 14 -15 14 -16 0 -16 -9 0 -16 -5 -16 -11 0 -5 4 -8 8 -5 4 2
9 -5 9 -17 2 -17 0 -19 -7 -7 -7 11 -10 5 -10 -22 0 -21 -4 -38 -9 -38 -8 0
-6 80 3 125 3 11 5 30 5 43 1 12 6 22 12 22 6 0 9 -7 5 -15z m3 -192 c-6 -6
-17 -9 -24 -7 -11 4 -10 9 3 23 19 19 38 5 21 -16z m-2 -30 c-9 -2 -15 -9 -11
-14 3 -5 9 -7 13 -4 5 2 7 -6 6 -18 -1 -12 -3 -28 -4 -34 -2 -27 -18 -12 -19
18 0 17 -6 37 -13 45 -9 12 -7 14 17 13 17 -1 22 -3 11 -6z m-33 -42 c3 -5 -2
-15 -12 -22 -15 -12 -16 -12 -5 2 7 9 10 19 6 22 -3 4 -4 7 0 7 3 0 8 -4 11
-9z m3390 -82 c0 -15 -6 -25 -18 -27 -15 -3 -16 -1 -6 17 6 12 8 26 4 33 -4 6
-1 9 7 6 7 -2 13 -15 13 -29z m-13 -63 c-6 -7 -8 -16 -4 -19 3 -4 1 -7 -5 -7
-10 0 -11 16 -3 48 1 2 6 0 11 -3 8 -5 8 -11 1 -19z m-3368 -69 c3 -8 -1 -14
-8 -14 -7 0 -11 6 -8 14 3 7 6 13 8 13 2 0 5 -6 8 -13z m7 -37 c0 -5 -5 -10
-11 -10 -5 0 -7 5 -4 10 3 6 8 10 11 10 2 0 4 -4 4 -10z m64 -21 c-3 -5 -10
-7 -15 -3 -5 3 -7 10 -3 15 3 5 10 7 15 3 5 -3 7 -10 3 -15z m3611 -309 c3 -5
-1 -10 -9 -10 -9 0 -16 5 -16 10 0 6 4 10 9 10 6 0 13 -4 16 -10z m-3884 -150
c5 0 9 -5 9 -11 0 -8 -4 -9 -13 0 -8 6 -18 7 -22 3 -5 -4 -5 -1 -1 6 4 7 2 12
-6 13 -9 0 -9 2 -2 5 7 3 10 15 8 27 -2 12 1 7 8 -10 6 -18 15 -33 19 -33z
m494 -60 c-8 -12 26 -51 38 -43 6 3 7 1 3 -5 -3 -5 0 -13 6 -16 7 -2 2 -3 -12
-2 -14 2 -24 6 -22 10 1 3 -7 16 -18 28 -15 17 -17 24 -8 30 17 10 20 10 13
-2z m3281 -19 c0 -11 -4 -17 -8 -15 -4 3 -8 12 -8 20 0 8 4 14 8 14 4 0 8 -9
8 -19z m-43 -76 c-10 -13 -20 -21 -22 -19 -2 2 3 12 12 22 10 10 14 22 10 27
-5 4 -2 5 5 1 9 -6 8 -13 -5 -31z m-3162 -7 c22 -24 23 -34 8 -43 -6 -4 -9 0
-7 11 2 13 -3 19 -14 18 -11 -1 -14 4 -11 14 5 11 3 13 -7 7 -9 -5 -11 -4 -6
3 10 17 16 15 37 -10z m-476 -8 c3 -6 -1 -7 -9 -4 -18 7 -21 14 -7 14 6 0 13
-4 16 -10z m53 -105 c-3 -3 -9 2 -12 12 -6 14 -5 15 5 6 7 -7 10 -15 7 -18z
m2709 -327 c-2 -7 -10 -12 -16 -10 -14 3 -14 -10 -1 -26 7 -9 7 -9 -2 -2 -20
17 -31 11 -17 -7 13 -16 12 -17 -3 -4 -15 11 -21 11 -33 1 -9 -7 -18 -10 -21
-7 -5 5 74 65 89 66 5 1 7 -5 4 -11z m-1847 -68 c0 -5 -2 -10 -4 -10 -3 0 -8
5 -11 10 -3 6 -1 10 4 10 6 0 11 -4 11 -10z m35 -28 c-3 -3 -11 0 -18 7 -9 10
-8 11 6 5 10 -3 15 -9 12 -12z m1622 -37 c0 -8 -4 -12 -9 -9 -5 3 -6 10 -3 15
9 13 12 11 12 -6z m48 5 c-3 -5 -12 -10 -18 -10 -7 0 -6 4 3 10 19 12 23 12
15 0z m-70 -19 c3 -5 2 -12 -3 -15 -5 -3 -9 1 -9 9 0 17 3 19 12 6z m-1420
-20 c3 -5 2 -12 -3 -15 -5 -3 -9 1 -9 9 0 17 3 19 12 6z m475 -73 c13 2 13 1
1 -7 -10 -6 -22 -4 -38 6 -29 20 -30 28 0 11 12 -7 29 -11 37 -10z m500 18 c0
-2 -9 -6 -20 -9 -11 -3 -18 -1 -14 4 5 9 34 13 34 5z m-73 -20 c0 -7 -18 -12
-39 -13 -21 -1 -38 2 -38 7 0 5 14 7 30 5 17 -2 28 -1 26 4 -3 4 1 8 8 8 7 0
13 -5 13 -11z m177 -11 c-4 -8 -8 -15 -10 -15 -2 0 -4 7 -4 15 0 8 4 15 10 15
5 0 7 -7 4 -15z m-801 -10 c-3 -9 -8 -14 -10 -11 -3 3 -2 9 2 15 9 16 15 13 8
-4z m31 -10 c-4 -8 -8 -15 -10 -15 -2 0 -4 7 -4 15 0 8 4 15 10 15 5 0 7 -7 4
-15z m36 11 c0 -3 -4 -8 -10 -11 -5 -3 -10 -1 -10 4 0 6 5 11 10 11 6 0 10 -2
10 -4z m320 0 c0 -3 -4 -8 -10 -11 -5 -3 -10 -1 -10 4 0 6 5 11 10 11 6 0 10
-2 10 -4z m377 -11 c0 -8 -4 -12 -9 -9 -5 3 -6 10 -3 15 9 13 12 11 12 -6z
m-684 -10 c-3 -9 -8 -14 -10 -11 -3 3 -2 9 2 15 9 16 15 13 8 -4z m97 -24 c3
-2 -3 -1 -12 2 -10 4 -18 2 -18 -3 0 -6 -5 -10 -11 -10 -8 0 -9 4 0 13 6 8 7
18 3 23 -6 7 24 -12 38 -25z m496 1 c-17 -16 -18 -16 -5 5 7 12 15 20 18 17 3
-2 -3 -12 -13 -22z m-553 3 c-3 -9 -8 -14 -10 -11 -3 3 -2 9 2 15 9 16 15 13
8 -4z m527 -5 c-12 -22 -21 -26 -17 -7 2 10 17 26 25 27 1 0 -2 -9 -8 -20z
m64 4 c3 -8 2 -12 -4 -9 -6 3 -10 10 -10 16 0 14 7 11 14 -7z m-510 -9 c-4 -8
-8 -15 -10 -15 -2 0 -4 7 -4 15 0 8 4 15 10 15 5 0 7 -7 4 -15z m49 8 c-7 -2
-19 -2 -25 0 -7 3 -2 5 12 5 14 0 19 -2 13 -5z m364 -15 c-3 -8 -6 -5 -6 6 -1
11 2 17 5 13 3 -3 4 -12 1 -19z m-191 -10 c4 -4 12 -4 18 -1 19 12 94 14 101
3 4 -7 -4 -9 -25 -5 -24 4 -30 2 -24 -7 6 -9 3 -9 -9 1 -14 11 -17 11 -17 0 0
-11 -2 -11 -10 1 -8 12 -10 12 -15 -3 -6 -15 -9 -15 -22 -2 -8 9 -19 12 -25 9
-18 -11 -66 -10 -62 1 5 12 78 14 90 3z"/>
<path d="M2014 4509 c-8 -14 14 -19 25 -6 8 10 7 14 -5 14 -8 0 -17 -4 -20 -8z"/>
<path d="M1960 3562 c0 -8 37 -46 87 -91 l33 -29 -88 -41 c-270 -130 -534
-369 -681 -620 -78 -131 -168 -382 -159 -439 l3 -22 45 22 c77 37 149 96 156
126 3 15 19 79 35 142 66 256 241 511 448 648 95 63 225 125 289 138 18 4 34
1 43 -8 18 -18 157 -88 175 -88 8 0 14 7 14 15 0 8 -3 15 -8 15 -4 0 -13 9
-20 20 -18 29 0 44 79 69 125 39 227 34 346 -19 49 -21 51 -27 23 -58 -46 -49
-9 -52 80 -7 30 15 66 37 82 48 l27 20 68 -23 c340 -114 601 -411 697 -793 19
-76 38 -142 42 -148 3 -6 40 -33 81 -60 70 -45 101 -57 115 -44 11 12 -40 183
-86 289 -80 182 -160 304 -288 434 -140 142 -307 264 -473 344 l-88 42 24 19
c60 47 100 90 91 99 -5 5 -33 0 -68 -14 -64 -24 -69 -24 -249 -13 -156 10
-387 10 -550 0 -169 -10 -201 -9 -239 9 -37 17 -86 28 -86 18z"/>
<path d="M2424 3078 c-190 -16 -397 -127 -580 -313 -116 -117 -203 -254 -228
-359 -4 -16 -32 -52 -64 -82 -43 -41 -53 -57 -45 -65 9 -9 16 -9 27 0 25 21
37 -22 41 -147 2 -65 6 -127 8 -138 3 -12 8 -37 11 -55 18 -118 99 -280 190
-385 53 -61 159 -152 203 -175 15 -8 30 -16 33 -20 8 -9 96 -48 125 -55 16 -4
37 -1 51 7 22 11 35 11 92 -4 184 -47 361 -47 538 -1 50 13 68 14 98 4 43 -14
79 -4 169 47 205 115 354 298 415 508 28 94 33 131 37 263 5 141 8 152 46 152
16 0 29 4 29 10 0 10 -30 40 -77 77 -18 14 -35 38 -39 56 -23 108 -108 241
-234 367 -149 149 -338 264 -485 295 -82 17 -246 23 -361 13z m316 -69 c201
-50 361 -154 459 -297 43 -64 105 -191 97 -200 -3 -2 -19 0 -35 6 -44 15 -46
0 -6 -44 19 -22 47 -61 62 -89 25 -44 28 -61 29 -145 1 -106 -13 -181 -53
-285 -62 -164 -164 -305 -283 -394 -19 -14 -40 -31 -47 -37 -7 -7 -55 -33
-106 -58 -85 -42 -94 -48 -90 -70 5 -22 1 -25 -43 -33 -58 -10 -273 -10 -328
0 -49 9 -61 16 -47 30 19 19 12 26 -72 66 -144 69 -268 175 -351 301 -40 61
-96 170 -96 189 0 4 -6 21 -14 37 -23 47 -44 168 -44 254 0 69 4 89 29 139 16
32 45 74 65 95 42 44 37 62 -12 41 -35 -14 -35 -14 -29 8 15 49 77 165 116
217 110 145 306 253 515 283 106 16 179 12 284 -14z"/>
<path d="M4055 3035 c4 -11 10 -28 12 -37 3 -10 9 -18 14 -18 5 0 2 15 -7 33
-19 38 -30 50 -19 22z"/>
<path d="M1016 2933 c-6 -14 -5 -15 5 -6 7 7 10 15 7 18 -3 3 -9 -2 -12 -12z"/>
<path d="M4091 2945 c1 -19 18 -51 18 -35 0 8 -4 22 -9 30 -5 8 -9 11 -9 5z"/>
<path d="M1006 2895 c-9 -26 -7 -32 5 -12 6 10 9 21 6 23 -2 3 -7 -2 -11 -11z"/>
<path d="M887 1984 c-3 -3 -2 -17 3 -30 5 -13 7 -24 4 -24 -4 0 -1 -7 6 -15 6
-8 8 -20 4 -27 -5 -9 -4 -10 5 -2 9 8 8 20 -3 51 -8 23 -12 44 -9 47 4 3 4 6
1 6 -2 0 -7 -3 -11 -6z"/>
<path d="M4225 1981 c-3 -5 -2 -12 3 -15 5 -3 9 1 9 9 0 17 -3 19 -12 6z"/>
<path d="M4213 1935 c-3 -9 -3 -18 -1 -21 3 -3 8 4 11 16 6 23 -1 27 -10 5z"/>
<path d="M930 1811 c0 -5 6 -14 14 -21 8 -6 13 -17 10 -25 -3 -7 -1 -16 5 -20
14 -8 9 29 -7 47 -6 8 -9 18 -5 21 3 4 1 7 -5 7 -7 0 -12 -4 -12 -9z"/>
<path d="M4160 1779 c0 -5 5 -7 10 -4 6 3 10 8 10 11 0 2 -4 4 -10 4 -5 0 -10
-5 -10 -11z"/>
<path d="M4145 1751 c3 -5 1 -12 -5 -16 -14 -8 -13 -25 2 -25 6 0 8 3 5 7 -4
3 0 15 10 25 15 17 15 18 -1 18 -9 0 -15 -4 -11 -9z"/>
<path d="M4105 1689 c-4 -6 -5 -12 -2 -15 2 -3 7 2 10 11 7 17 1 20 -8 4z"/>
<path d="M1005 1680 c3 -5 8 -10 11 -10 2 0 4 5 4 10 0 6 -5 10 -11 10 -5 0
-7 -4 -4 -10z"/>
<path d="M1030 1636 c0 -2 7 -9 15 -16 13 -11 14 -10 9 4 -5 14 -24 23 -24 12z"/>
<path d="M4059 1613 c-13 -16 -12 -17 4 -4 16 13 21 21 13 21 -2 0 -10 -8 -17
-17z"/>
<path d="M4025 1570 c-10 -11 -15 -20 -11 -20 11 0 39 30 34 36 -3 2 -13 -5
-23 -16z"/>
<path d="M3675 1170 c2 -3 -12 -24 -31 -45 -19 -21 -34 -35 -34 -30 0 4 -11
-4 -25 -19 -30 -32 -33 -47 -5 -21 11 10 20 15 20 10 0 -8 100 97 100 106 0 3
-7 6 -15 6 -8 0 -12 -3 -10 -7z"/>
<path d="M3609 1123 c-13 -16 -12 -17 4 -4 16 13 21 21 13 21 -2 0 -10 -8 -17
-17z"/>
<path d="M1503 1100 c2 -8 12 -16 23 -17 13 -2 15 -1 4 4 -8 3 -19 11 -23 17
-6 7 -7 6 -4 -4z"/>
<path d="M1526 1054 c-3 -9 1 -11 11 -7 10 4 14 2 9 -5 -3 -6 -1 -14 5 -18 8
-5 9 -3 4 6 -6 10 -3 12 11 7 18 -7 18 -6 2 6 -10 8 -16 16 -13 19 3 2 -2 5
-10 5 -8 0 -16 -6 -19 -13z"/>
<path d="M1570 1066 c0 -2 7 -7 16 -10 8 -3 12 -2 9 4 -6 10 -25 14 -25 6z"/>
<path d="M1636 1011 c-3 -5 -16 -7 -29 -4 -13 3 -4 -6 23 -24 66 -43 79 -48
45 -19 -16 14 -34 25 -39 26 -5 0 -3 7 4 15 7 8 10 15 7 15 -3 0 -8 -4 -11 -9z"/>
<path d="M3435 990 c-3 -6 1 -7 9 -4 18 7 21 14 7 14 -6 0 -13 -4 -16 -10z"/>
<path d="M1756 937 c3 -10 9 -15 12 -12 3 3 0 11 -7 18 -10 9 -11 8 -5 -6z"/>
<path d="M3350 940 c-12 -7 -10 -9 7 -7 12 0 19 5 17 9 -6 10 -6 10 -24 -2z"/>
<path d="M3185 920 c-3 -6 1 -7 9 -4 18 7 21 14 7 14 -6 0 -13 -4 -16 -10z"/>
<path d="M1820 900 c8 -5 20 -10 25 -10 6 0 3 5 -5 10 -8 5 -19 10 -25 10 -5
0 -3 -5 5 -10z"/>
<path d="M3269 889 l-24 -20 30 17 c39 24 40 24 28 24 -6 0 -21 -9 -34 -21z"/>
<path d="M3115 890 c-3 -6 1 -7 9 -4 18 7 21 14 7 14 -6 0 -13 -4 -16 -10z"/>
<path d="M1935 849 c-4 -6 -5 -12 -2 -15 2 -3 7 2 10 11 7 17 1 20 -8 4z"/>
<path d="M3188 843 c7 -3 16 -2 19 1 4 3 -2 6 -13 5 -11 0 -14 -3 -6 -6z"/>
<path d="M3154 826 c1 -8 5 -18 8 -22 4 -3 5 1 4 10 -1 8 -5 18 -8 22 -4 3 -5
-1 -4 -10z"/>
<path d="M1976 822 c-2 -4 -1 -14 4 -22 7 -11 9 -9 7 8 -1 24 -3 26 -11 14z"/>
<path d="M2294 809 c1 -7 10 -13 19 -15 9 -1 15 2 11 7 -3 5 -9 7 -14 4 -4 -3
-11 0 -13 5 -3 6 -4 5 -3 -1z"/>
<path d="M2190 800 c0 -5 5 -10 10 -10 6 0 10 5 10 10 0 6 -4 10 -10 10 -5 0
-10 -4 -10 -10z"/>
<path d="M2360 806 c0 -2 8 -10 18 -17 15 -13 16 -12 3 4 -13 16 -21 21 -21
13z"/>
<path d="M2767 799 c7 -7 15 -10 18 -7 3 3 -2 9 -12 12 -14 6 -15 5 -6 -5z"/>
<path d="M2435 790 c-4 -6 -12 -7 -18 -4 -7 4 -8 3 -4 -1 10 -12 39 -16 32 -5
-3 5 1 11 7 13 9 4 10 6 1 6 -6 1 -15 -4 -18 -9z"/>
<path d="M2470 779 c0 -5 4 -8 9 -4 5 3 12 1 16 -5 3 -5 11 -10 18 -10 6 0 2
7 -9 15 -23 17 -34 19 -34 4z"/>
<path d="M2610 781 c0 -6 4 -13 10 -16 6 -3 7 1 4 9 -7 18 -14 21 -14 7z"/>
<path d="M3046 775 c-3 -9 -11 -13 -17 -9 -8 5 -9 3 -4 -5 6 -10 11 -9 23 3 9
8 13 18 10 21 -3 3 -8 -1 -12 -10z"/>
<path d="M2676 4632 c-3 -4 4 -9 15 -9 23 -2 25 3 4 10 -8 4 -16 3 -19 -1z"/>
<path d="M2353 4615 c0 -8 4 -12 9 -9 5 3 6 10 3 15 -9 13 -12 11 -12 -6z"/>
<path d="M2430 4626 c0 -2 7 -6 15 -10 8 -3 15 -1 15 4 0 6 -7 10 -15 10 -8 0
-15 -2 -15 -4z"/>
<path d="M2473 4623 c4 -3 1 -13 -6 -22 -11 -14 -10 -14 6 -2 20 15 22 31 5
31 -6 0 -8 -3 -5 -7z"/>
<path d="M2753 4615 c0 -8 4 -12 9 -9 5 3 6 10 3 15 -9 13 -12 11 -12 -6z"/>
<path d="M2650 4599 c0 -5 5 -7 10 -4 6 3 10 8 10 11 0 2 -4 4 -10 4 -5 0 -10
-5 -10 -11z"/>
<path d="M2911 4603 c-1 -17 16 -25 25 -12 4 7 3 9 -4 5 -5 -3 -13 0 -15 6 -4
9 -6 10 -6 1z"/>
<path d="M2993 4595 c0 -8 4 -12 9 -9 5 3 6 10 3 15 -9 13 -12 11 -12 -6z"/>
<path d="M2197 4589 c7 -7 15 -10 18 -7 3 3 -2 9 -12 12 -14 6 -15 5 -6 -5z"/>
<path d="M2240 4569 c-40 -7 -39 -9 13 -14 20 -1 37 1 37 5 0 14 -13 17 -50 9z"/>
<path d="M2841 4571 c-11 -7 -11 -9 0 -14 8 -3 4 -6 -8 -6 -43 -2 -23 -18 22
-17 25 0 45 4 45 8 0 5 5 6 10 3 6 -4 8 -10 6 -14 -3 -3 11 -6 30 -6 19 1 37
-2 40 -7 10 -15 26 -8 20 8 -5 14 -4 15 8 5 11 -9 16 -9 22 0 4 8 11 4 20 -12
l13 -24 1 27 c0 21 -4 26 -19 23 -10 -2 -30 3 -45 10 -14 8 -26 10 -26 4 0 -5
5 -9 11 -9 5 0 7 -5 3 -12 -5 -8 -10 -7 -18 3 -6 8 -18 14 -26 14 -8 -1 -19 1
-25 4 -19 11 -55 12 -55 2 0 -6 8 -8 18 -4 9 3 14 3 11 -1 -4 -4 -16 -8 -27
-11 -16 -3 -20 1 -17 16 4 22 5 22 -14 10z m124 -39 c-3 -3 -11 0 -18 7 -9 10
-8 11 6 5 10 -3 15 -9 12 -12z"/>
<path d="M3075 4570 c-3 -6 1 -7 9 -4 18 7 21 14 7 14 -6 0 -13 -4 -16 -10z"/>
<path d="M3082 4522 c2 -11 11 -16 26 -14 13 2 22 -2 22 -10 0 -9 3 -9 10 2 5
8 10 20 10 25 0 6 -5 3 -10 -5 -9 -13 -10 -13 -10 0 0 10 -10 16 -26 18 -19 1
-25 -2 -22 -16z m28 4 c0 -3 -4 -8 -10 -11 -5 -3 -10 -1 -10 4 0 6 5 11 10 11
6 0 10 -2 10 -4z"/>
<path d="M4241 4103 c7 -10 15 -20 16 -22 2 -2 3 3 3 11 0 9 -7 19 -16 22 -15
6 -15 4 -3 -11z"/>
<path d="M4270 4056 c0 -2 7 -9 15 -16 13 -11 14 -10 9 4 -5 14 -24 23 -24 12z"/>
<path d="M801 4003 c-10 -26 -10 -27 4 -9 8 11 15 23 15 28 0 15 -7 8 -19 -19z"/>
<path d="M4467 3794 c-3 -3 3 -22 13 -42 25 -49 44 -95 42 -104 -1 -5 3 -8 8
-8 6 0 9 -3 9 -7 -1 -5 0 -11 1 -15 1 -5 4 -12 5 -18 1 -5 3 -11 5 -12 1 -2 3
-10 5 -18 8 -32 56 -164 62 -170 3 -3 3 6 -1 20 -4 14 -9 35 -12 47 -2 12 -9
35 -16 50 -6 16 -12 33 -14 40 -5 27 -27 89 -34 98 -5 6 -9 15 -9 20 -1 20
-44 125 -51 125 -3 0 -9 -3 -13 -6z"/>
<path d="M4615 3373 c4 -10 9 -29 12 -43 2 -13 7 -27 10 -30 2 -3 2 11 -2 30
-3 19 -7 41 -7 48 -1 6 -6 12 -11 12 -5 0 -6 -8 -2 -17z"/>
<path d="M479 3313 c0 -5 -2 -16 -4 -26 -2 -11 -1 -16 3 -13 8 8 14 46 7 46
-3 0 -5 -3 -6 -7z"/>
<path d="M4635 3273 c4 -10 8 -23 8 -30 0 -7 4 -10 9 -7 4 3 4 13 -2 23 -5 10
-6 21 -3 25 3 3 1 6 -6 6 -9 0 -11 -6 -6 -17z"/>
<path d="M463 3216 c3 -7 1 -19 -4 -25 -6 -8 -5 -8 3 -1 15 13 19 40 6 40 -6
0 -8 -6 -5 -14z"/>
<path d="M4652 3200 c0 -14 2 -19 5 -12 2 6 2 18 0 25 -3 6 -5 1 -5 -13z"/>
<path d="M456 3155 c-9 -26 -7 -32 5 -12 6 10 9 21 6 23 -2 3 -7 -2 -11 -11z"/>
<path d="M4655 3161 c-3 -5 -2 -12 3 -15 5 -3 9 1 9 9 0 17 -3 19 -12 6z"/>
<path d="M447 3097 c-3 -8 -2 -20 3 -26 5 -9 8 -4 8 13 0 29 -3 32 -11 13z"/>
<path d="M441 3034 c0 -11 3 -14 6 -6 3 7 2 16 -1 19 -3 4 -6 -2 -5 -13z"/>
<path d="M4694 2746 c0 -14 4 -22 8 -20 4 3 8 1 8 -5 0 -5 -5 -11 -11 -13 -7
-2 -6 -8 4 -16 13 -12 15 -8 12 25 -4 53 -4 53 -13 53 -4 0 -8 -11 -8 -24z"/>
<path d="M4694 2658 c-4 -7 -3 -8 4 -4 13 8 14 5 15 -91 0 -35 3 -63 7 -63 4
0 6 38 6 85 -1 59 -5 85 -13 85 -6 0 -15 -5 -19 -12z"/>
<path d="M393 2644 c0 -16 13 -19 21 -5 3 5 0 11 -7 14 -8 3 -14 -1 -14 -9z"/>
<path d="M400 2610 c8 -5 10 -10 4 -10 -6 0 -11 -11 -11 -25 0 -14 4 -25 9
-25 6 0 8 9 5 20 -3 11 -1 23 4 26 12 7 2 24 -14 24 -7 0 -6 -4 3 -10z"/>
<path d="M393 2505 c1 -19 5 -35 9 -35 4 0 6 16 5 35 -3 46 -15 46 -14 0z"/>
<path d="M4710 2480 c0 -5 5 -10 10 -10 6 0 10 5 10 10 0 6 -4 10 -10 10 -5 0
-10 -4 -10 -10z"/>
<path d="M395 2420 c0 -22 3 -40 7 -40 5 0 7 18 6 40 -2 52 -14 52 -13 0z"/>
<path d="M4707 2454 c-3 -4 -2 -15 4 -25 9 -18 5 -23 -15 -20 -5 1 -4 -4 2
-11 8 -10 10 -113 2 -113 -1 0 -3 -16 -5 -35 -4 -53 -15 -111 -21 -121 -3 -5
0 -9 5 -9 6 0 12 6 12 13 1 6 3 23 6 37 2 14 5 37 6 53 0 15 4 27 7 27 4 0 6
17 5 38 -1 20 1 41 4 47 9 17 10 55 0 55 -5 0 -4 9 3 20 11 17 10 22 -1 29
-11 7 -11 9 0 14 8 3 9 6 3 6 -6 1 -14 -2 -17 -5z"/>
<path d="M396 2349 c4 -13 7 -29 7 -36 0 -7 3 -10 7 -8 11 7 4 59 -9 63 -10 3
-11 -2 -5 -19z"/>
<path d="M404 2278 c1 -7 5 -18 9 -25 4 -6 4 -18 1 -26 -3 -8 -1 -18 5 -21 6
-4 9 4 7 21 -2 16 -4 36 -5 46 0 9 -5 17 -10 17 -5 0 -8 -6 -7 -12z"/>
<path d="M417 2183 c-4 -3 -2 -13 3 -23 5 -10 6 -20 2 -24 -3 -4 2 -4 12 0 13
5 14 9 6 14 -7 4 -10 12 -6 18 7 12 -8 25 -17 15z"/>
<path d="M439 2128 c-6 -21 -5 -39 2 -44 5 -3 8 6 7 20 -2 22 -6 33 -9 24z"/>
<path d="M4668 2103 c7 -3 16 -2 19 1 4 3 -2 6 -13 5 -11 0 -14 -3 -6 -6z"/>
<path d="M440 2058 c0 -4 5 -8 11 -8 5 0 7 -4 4 -10 -3 -5 -2 -10 4 -10 5 0 9
8 8 18 -1 18 -27 27 -27 10z"/>
<path d="M4659 2065 c-1 -3 -2 -13 -3 -22 -1 -10 -5 -24 -9 -30 -5 -7 -6 -17
-3 -22 4 -5 1 -11 -6 -13 -8 -3 -6 -7 4 -11 13 -5 16 -1 12 19 -3 15 -1 23 5
20 6 -4 8 2 6 14 -2 11 0 22 6 25 12 8 12 25 -1 25 -5 0 -11 -2 -11 -5z"/>
<path d="M458 2013 c7 -3 16 -2 19 1 4 3 -2 6 -13 5 -11 0 -14 -3 -6 -6z"/>
<path d="M4605 1980 c-3 -5 -1 -10 4 -10 6 0 11 5 11 10 0 6 -2 10 -4 10 -3 0
-8 -4 -11 -10z"/>
<path d="M470 1969 c0 -5 5 -7 10 -4 6 3 10 8 10 11 0 2 -4 4 -10 4 -5 0 -10
-5 -10 -11z"/>
<path d="M480 1950 c-9 -6 -11 -10 -3 -10 7 0 10 -6 7 -14 -3 -7 1 -16 9 -19
13 -5 16 9 7 33 -1 3 -2 8 -1 13 1 9 -1 9 -19 -3z"/>
<path d="M4626 1951 c-4 -5 -2 -12 3 -15 5 -4 12 -2 15 3 4 5 2 12 -3 15 -5 4
-12 2 -15 -3z"/>
<path d="M490 1881 c0 -5 5 -13 10 -16 6 -4 7 -11 4 -17 -5 -7 -2 -8 5 -4 8 5
11 3 10 -5 -2 -8 2 -24 9 -36 7 -13 10 -23 7 -23 -3 0 0 -10 7 -22 7 -13 11
-27 10 -31 -1 -5 3 -5 9 -1 8 5 10 2 7 -7 -3 -8 0 -23 8 -33 7 -11 11 -22 9
-26 -3 -4 2 -13 10 -20 9 -8 15 -8 15 -2 0 6 -6 13 -12 15 -10 4 -10 6 0 6 17
1 15 26 -3 41 -8 7 -14 18 -13 24 1 6 -3 21 -10 34 -7 12 -10 22 -6 22 3 0 1
6 -5 13 -6 8 -8 16 -5 19 3 3 -3 5 -13 4 -9 0 -18 6 -19 14 0 8 -2 18 -4 23
-1 4 -3 12 -4 19 -1 14 -26 23 -26 9z m61 -98 c0 -4 7 -19 16 -33 14 -23 14
-24 -1 -9 -9 8 -18 26 -21 38 -2 13 -2 21 1 18 3 -3 6 -9 5 -14z m48 -107 c-3
-3 -11 5 -18 17 -13 21 -12 21 5 5 10 -10 16 -20 13 -22z"/>
<path d="M4575 1840 c-3 -5 -1 -10 4 -10 6 0 11 5 11 10 0 6 -2 10 -4 10 -3 0
-8 -4 -11 -10z"/>
<path d="M4150 1079 c0 -5 5 -7 10 -4 6 3 10 8 10 11 0 2 -4 4 -10 4 -5 0 -10
-5 -10 -11z"/>
</g>
</svg>
